# xmcd
#
# Track frame offsets: 
#        150
#        16665
#        34651
#        46279
#        63658
#        74095
#        94002
#        108219
#        123407
#        134866
#        144533
#        157695
#        168970
#        179688
#        194145
#        210262
#        224880
#
# Disc length: 3160 seconds
#
# Revision: 2
# Processed by: cddbd v1.5.1PL2 Copyright (c) Steve Scherf et al.
# Submitted via: ExactAudioCopy v0.95b3
#
DISCID=040c5611
DTITLE=Various Artist - The Very Best Of Country Gold  Disc Three
DYEAR=2003
DGENRE=Country
TTITLE0=Eva Cassidy - Penny To My Name
TTITLE1=Billy Swan - I Can Help
TTITLE2=The Byrds - You Ain't Goin' Nowhere (Album Version)
TTITLE3=The Judds - Love Can Build A Bridge
TTITLE4=Crystal Gayle - Crying In The Rain
TTITLE5=Lesley King - You've Got A Friend
TTITLE6=Regina Gilbert - Don't Know Why
TTITLE7=Glen Houston - Gentle On My Mind
TTITLE8=Jolene Parsons - Don't It Make Your Brown Eyes Blue
TTITLE9=Ned Miller - From A Jack To A King
TTITLE10=Dottie West - DIVORCE
TTITLE11=Lost Angels - Mr Tamborine Man
TTITLE12=Don Williams - Always Something There To Remind Me
TTITLE13=Flora Vasconcelos - Come Away With Me
TTITLE14=Kenny Rogers - Wind Beneath My Wings
TTITLE15=Don Gibson - I Can't Stop Lovin' You
TTITLE16=Johnny Cash - I Walk The Line
EXTD=
EXTT0=
EXTT1=
EXTT2=
EXTT3=
EXTT4=
EXTT5=
EXTT6=
EXTT7=
EXTT8=
EXTT9=
EXTT10=
EXTT11=
EXTT12=
EXTT13=
EXTT14=
EXTT15=
EXTT16=
PLAYORDER=
